<svg version="1.1" id="Layer_1" xmlns="http://www.w3.org/2000/svg" xmlns:xlink="http://www.w3.org/1999/xlink" x="0px" y="0px"
	 width="100%" viewBox="0 0 577 680" enable-background="new 0 0 577 680" xml:space="preserve">
<path fill="#000000" opacity="1.000000" stroke="none" 
	d="
M90.693237,1.397262 
	C223.354233,1.000000 355.708466,1.000000 488.531342,1.000000 
	C490.728546,2.910724 490.651062,5.293943 490.652130,7.617420 
	C490.684570,77.242912 490.702698,146.868423 490.637604,216.493896 
	C490.631104,223.430267 489.415924,224.490173 482.390533,224.657974 
	C481.058380,224.689804 479.725555,224.675293 478.393005,224.675293 
	C352.800537,224.675873 227.208069,224.676666 101.615593,224.674179 
	C89.396278,224.673935 89.326324,224.603989 89.325783,212.504150 
	C89.322739,145.377136 89.316986,78.250122 89.347023,11.123116 
	C89.348419,7.993328 88.827194,4.766846 90.693237,1.397262 
z"/>
<path fill="#000000" opacity="1.000000" stroke="none" 
	d="
M489.307190,680.602478 
	C356.645782,681.000000 224.291550,681.000000 91.468658,681.000000 
	C89.270363,679.088013 89.348862,676.703186 89.347786,674.378418 
	C89.316528,607.045105 89.293983,539.711853 89.365654,472.378601 
	C89.372795,465.663788 90.619614,464.548676 97.246025,464.347961 
	C98.745255,464.302551 100.245834,464.324646 101.745827,464.324646 
	C227.245819,464.324188 352.745819,464.323456 478.245819,464.325531 
	C490.668610,464.325745 490.674255,464.333130 490.674652,476.870209 
	C490.676697,541.703552 490.682343,606.536865 490.655426,671.370178 
	C490.654205,674.338867 491.116272,677.397888 489.307190,680.602478 
z"/>
<path fill="#FBFBFB" opacity="1.000000" stroke="none" 
	d="
M489.467590,681.000000 
	C488.966614,623.178772 488.932007,565.357483 488.900757,507.536224 
	C488.894196,495.371796 488.720367,483.203217 488.998444,471.045166 
	C489.094086,466.863525 488.347961,465.260254 483.677612,465.475342 
	C474.199463,465.911865 464.687103,465.605621 455.188843,465.605621 
	C335.710663,465.605621 216.232483,465.628876 96.754417,465.513245 
	C92.375633,465.509003 90.967583,466.368256 90.979332,471.105133 
	C91.152161,540.758606 91.094673,610.412659 91.045959,680.533325 
	C85.311958,681.000000 79.623917,681.000000 73.467941,681.000000 
	C71.657494,679.547119 71.453766,677.733093 71.379448,675.879517 
	C71.299301,673.881042 71.326851,671.881531 71.326836,669.882385 
	C71.325493,450.629486 71.322540,231.376587 71.353058,12.123700 
	C71.353539,8.666082 70.724297,5.101525 72.694000,1.396215 
	C78.688042,1.000000 84.376083,1.000000 90.532059,1.000000 
	C91.033401,56.162846 91.069092,111.325691 91.098808,166.488541 
	C91.107780,183.154510 91.100136,199.820480 91.100220,216.486450 
	C91.100250,223.155701 91.100388,223.156204 97.539169,223.156204 
	C184.202225,223.156326 270.865265,223.156281 357.528320,223.156281 
	C399.526550,223.156281 441.525055,223.091644 483.522644,223.255600 
	C487.752167,223.272110 489.032562,222.486008 489.021759,217.923828 
	C488.850952,145.927322 488.905334,73.930298 488.954041,1.466693 
	C494.354919,1.000000 499.709869,1.000000 505.532410,1.000000 
	C507.342499,2.452891 507.546173,4.267005 507.620544,6.120564 
	C507.700745,8.118969 507.673187,10.118558 507.673187,12.117677 
	C507.674561,231.371460 507.677460,450.625244 507.647034,669.879028 
	C507.646545,673.335327 508.274231,676.898193 506.306641,680.603149 
	C500.645081,681.000000 495.290131,681.000000 489.467590,681.000000 
z"/>
<path fill="#030303" opacity="1.000000" stroke="none" 
	d="
M506.444153,681.000000 
	C506.000610,454.645782 506.001251,228.291534 506.000946,1.468657 
	C508.370575,1.000000 510.741119,1.000000 513.555847,1.000000 
	C516.734802,4.924318 515.453857,9.388395 515.542969,13.611135 
	C515.820923,26.772984 514.245483,25.310909 527.322449,25.389853 
	C537.631714,25.452089 547.941650,25.410395 558.251282,25.399708 
	C566.385010,25.391275 566.249268,25.378191 566.452576,17.021502 
	C566.576599,11.921257 565.470154,6.715257 567.722961,1.364713 
	C571.331055,1.000000 575.953369,-0.299067 577.628967,1.366449 
	C579.294495,3.021866 577.999695,7.657648 577.999695,10.986472 
	C578.000000,232.170105 578.000000,453.353729 578.000000,674.537354 
	C578.000000,681.000000 578.000000,681.000000 571.471436,681.000000 
	C570.638672,681.000000 569.805908,681.000000 568.486572,681.000000 
	C565.939514,678.593079 566.489624,675.642212 566.417480,672.869324 
	C566.341980,669.968323 565.055969,668.629944 562.160522,668.617371 
	C548.017822,668.556213 533.875366,668.543518 519.732727,668.623840 
	C516.764832,668.640686 515.634155,670.148438 515.582764,672.976624 
	C515.538025,675.440491 515.904175,678.000183 514.268860,680.644531 
	C511.629425,681.000000 509.258881,681.000000 506.444153,681.000000 
z"/>
<path fill="#030303" opacity="1.000000" stroke="none" 
	d="
M72.550018,1.000000 
	C72.999382,227.354233 72.998772,453.708466 72.999084,680.531372 
	C70.299988,681.000000 67.599968,681.000000 64.449982,681.000000 
	C61.939518,678.593079 62.489681,675.642212 62.417530,672.869324 
	C62.342041,669.968262 61.055889,668.629944 58.160488,668.617432 
	C44.017818,668.556213 29.875420,668.543457 15.732741,668.623840 
	C12.764960,668.640686 11.634174,670.148315 11.582786,672.976562 
	C11.538016,675.440430 11.904239,678.000122 10.268847,680.644531 
	C7.002074,681.000000 2.842363,682.169128 1.333990,680.670166 
	C-0.164951,679.180603 1.000262,675.008301 1.000258,672.012451 
	C0.999978,450.998688 1.000009,229.984894 0.999999,8.971117 
	C0.999999,0.999999 1.000004,0.999999 9.508951,1.000000 
	C12.734685,4.924341 11.453990,9.388443 11.543023,13.611169 
	C11.820533,26.772976 10.245860,25.310919 23.322451,25.389853 
	C33.631733,25.452082 43.941700,25.410393 54.251347,25.399712 
	C62.385509,25.391285 62.249756,25.378201 62.452641,17.021484 
	C62.576462,11.921234 61.470425,6.715268 63.722958,1.364702 
	C66.700012,1.000000 69.400032,1.000000 72.550018,1.000000 
z"/>
<path fill="#FFFFFF" opacity="1.000000" stroke="none" 
	d="
M63.531342,1.000000 
	C64.034851,8.491328 63.968136,15.985245 64.158905,23.472601 
	C64.226860,26.139753 63.694069,27.205738 60.696491,27.176569 
	C44.879490,27.022663 29.059271,27.015741 13.242488,27.180513 
	C10.145101,27.212782 9.789635,25.998646 9.844189,23.411795 
	C9.995116,16.254974 9.901317,9.092992 9.952129,1.466525 
	C27.687561,1.000000 45.375122,1.000000 63.531342,1.000000 
z"/>
<path fill="#FFFFFF" opacity="1.000000" stroke="none" 
	d="
M567.531372,1.000000 
	C568.034851,8.491357 567.968079,15.985305 568.158936,23.472685 
	C568.226929,26.139967 567.694153,27.205841 564.696533,27.176676 
	C548.879517,27.022781 533.059204,27.015850 517.242371,27.180626 
	C514.144958,27.212894 513.789673,25.998779 513.844177,23.411875 
	C513.995056,16.255024 513.901184,9.093011 513.952026,1.466520 
	C531.687561,1.000000 549.375122,1.000000 567.531372,1.000000 
z"/>
<path fill="#FFFFFF" opacity="1.000000" stroke="none" 
	d="
M10.468657,681.000000 
	C10.038412,676.406067 8.020225,670.505920 10.728285,667.601257 
	C13.224682,664.923706 19.178755,666.878906 23.604382,666.844604 
	C35.869080,666.749512 48.137070,666.934631 60.399014,666.727722 
	C63.579151,666.674133 64.410843,667.634094 64.161995,670.627136 
	C63.901951,673.755005 64.098640,676.920776 64.047836,680.535034 
	C46.312439,681.000000 28.624876,681.000000 10.468657,681.000000 
z"/>
<path fill="#FFFFFF" opacity="1.000000" stroke="none" 
	d="
M514.468628,681.000000 
	C514.038269,676.406006 512.020264,670.505981 514.728210,667.601257 
	C517.224548,664.923523 523.178650,666.878784 527.604309,666.844482 
	C539.869080,666.749451 552.137085,666.934509 564.399109,666.727600 
	C567.579224,666.673950 568.410950,667.633972 568.162048,670.627075 
	C567.901978,673.754944 568.098694,676.920776 568.047852,680.535034 
	C550.312439,681.000000 532.624878,681.000000 514.468628,681.000000 
z"/>
<path fill="#000000" opacity="1.000000" stroke="none" 
	d="
M488.899841,353.000061 
	C488.899841,385.991455 488.829254,418.483185 488.991364,450.973755 
	C489.011078,454.922058 488.353149,456.271027 483.974945,456.266418 
	C354.676056,456.130585 225.376968,456.132599 96.078072,456.260132 
	C91.808075,456.264343 90.996544,455.076477 91.004112,451.027069 
	C91.136986,379.879517 91.141273,308.731567 90.998367,237.584061 
	C90.989777,233.305496 92.256065,232.510956 96.274788,232.514404 
	C225.407104,232.625290 354.539551,232.635239 483.671783,232.485138 
	C488.281403,232.479782 489.014221,233.834793 488.996155,238.030807 
	C488.831909,276.186646 488.899841,314.343475 488.899841,353.000061 
z"/>
<path fill="#FCFCFC" opacity="1.000000" stroke="none" 
	d="
M526.022705,278.356689 
	C539.011230,278.356720 551.505859,278.458893 563.996643,278.286499 
	C567.206665,278.242249 568.238708,279.024078 568.196533,282.406891 
	C568.003418,297.896027 568.003418,313.390289 568.195923,328.879456 
	C568.238342,332.290283 567.117249,332.960785 563.972351,332.929718 
	C548.648804,332.778290 533.322144,332.772919 517.998779,332.933258 
	C514.803467,332.966705 513.765442,332.213379 513.806458,328.850555 
	C513.993103,313.527863 514.035767,298.199188 513.785583,282.878296 
	C513.722229,279.001587 514.878845,277.861572 518.537354,278.304810 
	C520.835693,278.583282 523.195190,278.356689 526.022705,278.356689 
z"/>
<path fill="#FCFCFC" opacity="1.000000" stroke="none" 
	d="
M554.984985,45.356720 
	C559.587219,45.703075 565.043945,43.526829 567.424072,46.274067 
	C569.437073,48.597549 568.086914,53.897659 568.098328,57.880798 
	C568.134583,70.540245 567.987122,83.201904 568.194763,95.858047 
	C568.250183,99.235817 567.175171,99.965111 563.993469,99.932312 
	C548.670410,99.774353 533.343872,99.777031 518.020691,99.930595 
	C514.863831,99.962227 513.762817,99.271851 513.804688,95.872604 
	C513.995544,80.383659 513.997925,64.889671 513.802673,49.400841 
	C513.759949,46.006187 514.810425,45.241936 518.009277,45.287292 
	C530.166687,45.459667 542.327942,45.356731 554.984985,45.356720 
z"/>
<path fill="#FCFCFC" opacity="1.000000" stroke="none" 
	d="
M513.888306,524.014221 
	C513.888306,511.356689 513.888306,511.356720 525.882202,511.356720 
	C538.541748,511.356720 551.201965,511.429138 563.860229,511.303314 
	C566.840454,511.273682 568.256897,511.665649 568.206177,515.270203 
	C567.985779,530.924927 568.050171,546.585022 568.169373,562.241943 
	C568.190308,564.994568 567.540894,565.954956 564.610046,565.928345 
	C548.953491,565.785950 533.293884,565.763855 517.638062,565.942078 
	C514.436829,565.978455 513.786743,564.955994 513.823303,561.989624 
	C513.977234,549.498596 513.888306,537.004517 513.888306,524.014221 
z"/>
<path fill="#FFFFFF" opacity="1.000000" stroke="none" 
	d="
M513.895386,464.999939 
	C513.895386,455.512787 514.049377,446.521545 513.812500,437.540649 
	C513.728760,434.364410 514.712830,433.710907 517.713684,433.740570 
	C533.190125,433.893433 548.669189,433.867615 564.146362,433.759247 
	C566.902222,433.739960 568.239868,434.002563 568.195679,437.399353 
	C567.990051,453.207428 568.037170,469.020233 568.169006,484.829895 
	C568.191650,487.542419 567.303528,488.106415 564.786621,488.090027 
	C548.976562,487.987152 533.164795,487.962677 517.355347,488.106262 
	C514.452881,488.132629 513.749878,487.225006 513.834167,484.470978 
	C514.027649,478.152588 513.895386,471.824249 513.895386,464.999939 
z"/>
<path fill="#FEFEFE" opacity="1.000000" stroke="none" 
	d="
M517.003296,410.453796 
	C514.079346,410.834076 513.860352,409.433014 513.866272,407.492798 
	C513.916077,391.335419 513.945068,375.177490 513.842224,359.020599 
	C513.826172,356.512604 514.738281,356.015564 517.022644,356.027557 
	C533.013184,356.111450 549.004578,356.113190 564.995056,356.026123 
	C567.303772,356.013580 568.172546,356.554291 568.156921,359.038025 
	C568.055969,375.194916 568.006104,391.353912 568.188904,407.509369 
	C568.225464,410.744171 566.554871,410.469086 564.478638,410.466278 
	C548.820801,410.445160 533.163025,410.454773 517.003296,410.453796 
z"/>
<path fill="#FFFFFF" opacity="1.000000" stroke="none" 
	d="
M538.000000,255.038300 
	C530.842834,255.038284 524.182922,254.927658 517.529846,255.092911 
	C514.883301,255.158646 513.792419,254.658066 513.822266,251.645996 
	C513.978943,235.836777 513.977600,220.024384 513.823303,204.215118 
	C513.793945,201.205856 514.879700,200.737473 517.538147,200.756500 
	C533.181702,200.868439 548.827942,200.924072 564.469666,200.721497 
	C567.803345,200.678329 568.185547,201.889221 568.163025,204.722748 
	C568.040405,220.199692 567.980530,235.679871 568.198975,251.154694 
	C568.248535,254.666840 566.987061,255.163925 563.962341,255.100388 
	C555.478210,254.922195 546.987854,255.038300 538.000000,255.038300 
z"/>
<path fill="#FFFFFF" opacity="1.000000" stroke="none" 
	d="
M513.895264,131.044189 
	C513.895691,123.010033 513.895691,123.010017 521.372314,123.010017 
	C535.693848,123.010017 550.016602,123.109116 564.335938,122.931473 
	C567.421875,122.893188 568.216003,123.673698 568.182434,126.767456 
	C568.013000,142.419403 568.042175,158.074661 568.163391,173.727493 
	C568.184692,176.480789 567.509399,177.393402 564.617188,177.367416 
	C548.964661,177.226730 533.309265,177.208954 517.657288,177.378693 
	C514.540466,177.412491 513.783386,176.558273 513.820618,173.501663 
	C513.990723,159.515259 513.895264,145.525620 513.895264,131.044189 
z"/>
<path fill="#FEFEFE" opacity="1.000000" stroke="none" 
	d="
M513.894043,632.989746 
	C513.894043,619.499146 513.997925,606.504761 513.821289,593.514221 
	C513.776978,590.250366 514.289062,588.917603 518.029785,588.974487 
	C533.351257,589.207275 548.679199,589.157898 564.002625,589.000671 
	C567.162842,588.968323 568.231750,589.664856 568.190002,593.045837 
	C567.998535,608.535034 567.990479,624.029541 568.194824,639.518433 
	C568.240356,642.971985 567.064087,643.552490 563.969238,643.521179 
	C549.312073,643.372742 534.647461,643.238403 519.996582,643.577209 
	C515.130127,643.689819 512.862732,642.669434 513.857239,637.478271 
	C514.103516,636.192810 513.894043,634.820068 513.894043,632.989746 
z"/>
<path fill="#FEFEFE" opacity="1.000000" stroke="none" 
	d="
M24.006182,410.914062 
	C19.844584,410.913757 16.178061,410.818604 12.519591,410.949188 
	C10.375965,411.025696 9.561456,410.261017 9.567581,408.105682 
	C9.614431,391.621674 9.632812,375.137238 9.547021,358.653564 
	C9.534804,356.306366 10.532254,355.966492 12.529997,355.973602 
	C28.847420,356.031738 45.165512,356.061188 61.482380,355.949768 
	C64.053009,355.932220 64.457642,356.939331 64.447624,359.165680 
	C64.375671,375.149963 64.333595,391.135406 64.475090,407.118774 
	C64.502808,410.250336 63.465626,411.018951 60.469143,410.979370 
	C48.482777,410.821045 36.493095,410.914032 24.006182,410.914062 
z"/>
<path fill="#FCFCFC" opacity="1.000000" stroke="none" 
	d="
M64.111656,311.999847 
	C64.111542,318.163116 64.003952,323.829407 64.160347,329.488403 
	C64.230049,332.010284 63.587658,332.943512 60.862465,332.922241 
	C44.872913,332.797241 28.881552,332.809509 12.891706,332.914154 
	C10.396300,332.930481 9.835016,332.053894 9.846620,329.743530 
	C9.926927,313.753387 9.969341,297.761932 9.818285,281.772827 
	C9.789165,278.690399 11.025561,278.293396 13.636818,278.309387 
	C29.293621,278.405518 44.952034,278.434906 60.608067,278.288788 
	C63.582935,278.261047 64.206161,279.289642 64.166985,282.018188 
	C64.025902,291.843658 64.111618,301.672394 64.111656,311.999847 
z"/>
<path fill="#FCFCFC" opacity="1.000000" stroke="none" 
	d="
M64.111656,553.983459 
	C64.111656,565.861267 64.111656,565.861206 52.881565,565.861206 
	C39.888832,565.861206 26.894175,565.739380 13.904677,565.944397 
	C10.538945,565.997559 9.781819,564.963501 9.815383,561.755920 
	C9.977468,546.266296 9.959714,530.773376 9.825554,515.283203 
	C9.800088,512.342957 10.394667,511.242645 13.626846,511.278564 
	C29.282824,511.452576 44.942448,511.430847 60.599125,511.291809 
	C63.541798,511.265686 64.193550,512.271362 64.166946,515.009155 
	C64.042305,527.834106 64.111626,540.660889 64.111656,553.983459 
z"/>
<path fill="#FCFCFC" opacity="1.000000" stroke="none" 
	d="
M41.999855,99.861153 
	C32.172085,99.861107 22.842583,99.762184 13.517509,99.921883 
	C10.755905,99.969177 9.796498,99.301300 9.822382,96.368874 
	C9.962047,80.546150 9.959402,64.720940 9.824185,48.898132 
	C9.799353,45.992245 10.734013,45.279007 13.511541,45.299999 
	C29.168039,45.418339 44.826344,45.417568 60.482864,45.300556 
	C63.251492,45.279865 64.201202,45.978683 64.176147,48.892532 
	C64.040062,64.715317 64.038490,80.540535 64.177292,96.363274 
	C64.202950,99.287582 63.261993,100.012665 60.487156,99.921539 
	C54.497177,99.724846 48.496258,99.861107 41.999855,99.861153 
z"/>
<path fill="#FFFFFF" opacity="1.000000" stroke="none" 
	d="
M29.000366,433.811584 
	C39.652477,433.811584 49.806301,433.915131 59.955685,433.748413 
	C62.995823,433.698456 64.245934,434.206360 64.197365,437.708984 
	C63.982819,453.183838 64.038734,468.663910 64.164322,484.140686 
	C64.187355,486.979553 63.797806,488.170685 60.476334,488.127869 
	C44.834686,487.926025 29.187605,487.928802 13.545847,488.126373 
	C10.260741,488.167877 9.807904,487.040924 9.832607,484.162781 
	C9.965446,468.686096 10.012952,453.206085 9.804965,437.731049 
	C9.758459,434.270874 10.937050,433.599976 14.024141,433.749725 
	C18.839220,433.983337 23.673967,433.811584 29.000366,433.811584 
z"/>
<path fill="#FEFEFE" opacity="1.000000" stroke="none" 
	d="
M63.772850,642.899414 
	C46.674564,643.362549 29.852455,643.340027 13.032504,643.519653 
	C10.184016,643.550110 9.842618,642.395508 9.854236,640.019958 
	C9.931625,624.195923 9.967818,608.370605 9.828037,592.547485 
	C9.802287,589.632568 10.759608,588.992920 13.495998,589.013733 
	C29.152931,589.133179 44.812660,589.182922 60.467953,588.983154 
	C63.815285,588.940369 64.183060,590.196350 64.160751,593.011292 
	C64.030083,609.500732 64.068428,625.991394 63.772850,642.899414 
z"/>
<path fill="#FFFFFF" opacity="1.000000" stroke="none" 
	d="
M24.005192,255.038193 
	C19.075581,254.747208 13.187999,256.927094 10.630648,254.137939 
	C8.445662,251.754883 9.923442,245.946472 9.909345,241.652756 
	C9.869452,229.503464 10.014618,217.352020 9.817238,205.205795 
	C9.763334,201.888763 10.352965,200.658600 14.047303,200.714478 
	C29.355410,200.945969 44.669777,200.889496 59.980045,200.746231 
	C63.058643,200.717422 64.241165,201.276306 64.194832,204.732925 
	C63.987408,220.208191 63.978615,235.689590 64.199928,251.164474 
	C64.250443,254.695908 62.957062,255.136261 59.952747,255.098709 
	C48.138042,254.950989 36.320400,255.038193 24.005192,255.038193 
z"/>
<path fill="#FFFFFF" opacity="1.000000" stroke="none" 
	d="
M9.895250,138.003418 
	C9.967777,132.862534 8.248562,126.644341 10.582115,123.992569 
	C13.287676,120.918060 19.645267,123.115295 24.406973,123.057922 
	C36.394585,122.913467 48.387215,123.133194 60.373020,122.927094 
	C63.527283,122.872856 64.207947,123.782051 64.177567,126.804649 
	C64.020248,142.455841 64.037727,158.110001 64.166290,173.761703 
	C64.189339,176.567490 63.426018,177.389297 60.583126,177.365097 
	C44.764988,177.230530 28.944622,177.237579 13.126306,177.360947 
	C10.438004,177.381912 9.816452,176.508499 9.842252,173.970734 
	C9.962438,162.149155 9.895351,150.325653 9.895250,138.003418 
z"/>
</svg>