<svg xmlns="http://www.w3.org/2000/svg"  viewBox="0 0 24 24" width="24px" height="24px"><path d="M18 13c-1.858 0-3.489-1.297-5.748-3.092C10.731 8.699 7.246 8.289 6.7 8.714L5.293 7.293C7.346 5.239 8.586 4 11 4c3.018 0 5.214 1.688 6.979 3.046.554.425 1.077.827 1.527 1.092.342.201 1.073.436 1.685.253.391-.115.689-.39.914-.838l1.834.789C22.879 11.259 20.659 13 18 13zM8.983 6.633c1.707.234 3.512.913 4.514 1.709C15.632 10.04 16.894 11 18 11c.745 0 1.435-.207 2.042-.599-.611-.097-1.158-.31-1.548-.539-.557-.328-1.128-.767-1.732-1.231C15.156 7.397 13.337 6 11 6 10.214 6 9.641 6.176 8.983 6.633zM13 20c-1.858 0-3.489-1.297-5.748-3.092C5.732 15.7 2.246 15.287 1.7 15.714l-1.407-1.421C2.346 12.239 3.586 11 6 11c3.018 0 5.214 1.688 6.979 3.046.554.425 1.077.827 1.527 1.092.342.201 1.073.433 1.685.253.391-.115.689-.39.914-.838l1.834.789C17.879 18.259 15.659 20 13 20zM3.983 13.633c1.707.234 3.512.913 4.514 1.709C10.632 17.04 11.894 18 13 18c.745 0 1.435-.207 2.042-.599-.611-.097-1.158-.31-1.548-.539-.557-.328-1.128-.767-1.732-1.231C10.156 14.397 8.337 13 6 13 5.214 13 4.641 13.176 3.983 13.633z"/></svg>