<svg xmlns="http://www.w3.org/2000/svg"  viewBox="0 0 50 50" width="50px" height="50px"><path d="M 25.769531 5.0234375 C 25.577389 5.0077126 25.384672 5.0104829 25.193359 5.03125 C 24.42811 5.1143183 23.693166 5.4863878 23.177734 6.1269531 C 22.14716 7.4092138 22.353635 9.3148399 23.634766 10.345703 L 26.9375 13 L 9.9609375 13 C 8.3159677 13 6.9609375 14.35503 6.9609375 16 C 6.9609375 17.64497 8.3159677 19 9.9609375 19 L 17.396484 19 L 3.15625 30.509766 C 1.8279792 31.5835 1.618329 33.561705 2.6914062 34.890625 C 3.7651405 36.218896 5.7433456 36.428546 7.0722656 35.355469 L 14.068359 29.699219 C 14.627136 37.717447 22.000484 44 30.960938 44 C 40.279246 44 47.960937 37.226777 47.960938 28.75 C 47.960938 23.363486 44.828957 18.653372 40.1875 15.955078 L 27.396484 5.6699219 A 1.0001 1.0001 0 0 0 27.394531 5.6699219 C 26.913719 5.2834566 26.345957 5.0706121 25.769531 5.0234375 z M 25.40625 7.0078125 C 25.658751 6.9803805 25.922708 7.0518025 26.142578 7.2285156 L 38.980469 17.550781 A 1.0001 1.0001 0 0 0 39.109375 17.638672 C 43.259836 20.020561 45.960938 24.108867 45.960938 28.75 C 45.960938 36.013223 39.316628 42 30.960938 42 C 22.605246 42 15.960938 36.013223 15.960938 28.75 C 15.960938 28.431258 15.987701 28.093563 16.019531 27.728516 A 1.0001 1.0001 0 0 0 14.394531 26.863281 L 5.8144531 33.798828 C 5.3254809 34.192301 4.6418825 34.12001 4.2480469 33.632812 C 3.8531242 33.143733 3.9263333 32.460672 4.4140625 32.066406 L 20.853516 18.777344 A 1.0001 1.0001 0 0 0 20.224609 17 L 9.9609375 17 C 9.3959073 17 8.9609375 16.56503 8.9609375 16 C 8.9609375 15.43497 9.3959073 15 9.9609375 15 L 29.777344 15 A 1.0001 1.0001 0 0 0 30.404297 13.220703 L 24.888672 8.7871094 C 24.449803 8.4339727 24.382902 7.8205987 24.736328 7.3808594 C 24.912896 7.1614247 25.153749 7.0352442 25.40625 7.0078125 z M 30.960938 18 C 24.978524 18 19.960937 22.170153 19.960938 27.5 C 19.960938 32.829847 24.978524 37 30.960938 37 C 36.943349 37 41.960938 32.829847 41.960938 27.5 C 41.960938 22.170153 36.943349 18 30.960938 18 z M 30.960938 20 C 36.024524 20 39.960938 23.441847 39.960938 27.5 C 39.960938 31.558153 36.024524 35 30.960938 35 C 25.89735 35 21.960937 31.558153 21.960938 27.5 C 21.960938 23.441847 25.89735 20 30.960938 20 z M 30.960938 22 C 27.646937 22 24.960938 24.239 24.960938 27 C 24.960938 29.761 27.646937 32 30.960938 32 C 34.274938 32 36.960938 29.761 36.960938 27 C 36.960938 24.239 34.274938 22 30.960938 22 z M 30.960938 24 C 33.128937 24 34.960938 25.374 34.960938 27 C 34.960938 28.626 33.128937 30 30.960938 30 C 28.792938 30 26.960938 28.626 26.960938 27 C 26.960938 25.374 28.792938 24 30.960938 24 z"/></svg>