<svg xmlns="http://www.w3.org/2000/svg"  viewBox="0 0 50 50" width="50px" height="50px"><path d="M 18.5 2 C 13.81752 2 10 5.8175204 10 10.5 C 10 13.800292 11.949927 16.592855 14.708984 18 C 11.949927 19.407145 10 22.199708 10 25.5 C 10 28.800292 11.949927 31.592855 14.708984 33 C 11.949927 34.407145 10 37.199708 10 40.5 C 10 45.18248 13.81752 49 18.5 49 C 23.18248 49 27 45.18248 27 40.5 L 27 33 L 27 29.65625 C 28.341367 32.201717 30.932066 34 34 34 C 38.406436 34 42 30.406432 42 26 C 42 22.378246 39.526173 19.428685 36.214844 18.449219 C 39.553558 17.301707 42 14.220224 42 10.5 C 42 5.8175204 38.18248 2 33.5 2 L 26 2 L 18.5 2 z M 18.5 4 L 25 4 L 25 17 L 18.5 17 C 14.89848 17 12 14.10152 12 10.5 C 12 6.8984796 14.89848 4 18.5 4 z M 27 4 L 33.5 4 C 37.10152 4 40 6.8984796 40 10.5 C 40 14.10152 37.10152 17 33.5 17 L 27 17 L 27 4 z M 18.5 19 L 25 19 L 25 32 L 18.5 32 C 14.89848 32 12 29.10152 12 25.5 C 12 21.89848 14.89848 19 18.5 19 z M 27 19 L 30.34375 19 C 28.908839 19.756146 27.756146 20.908838 27 22.34375 L 27 19 z M 34 20 C 37.325556 20 40 22.674446 40 26 C 40 29.325554 37.325556 32 34 32 C 30.674444 32 28 29.325554 28 26 C 28 22.674446 30.674444 20 34 20 z M 18.5 34 L 25 34 L 25 40.5 C 25 44.10152 22.10152 47 18.5 47 C 14.89848 47 12 44.10152 12 40.5 C 12 36.89848 14.89848 34 18.5 34 z"/></svg>